<?xml version="1.0" encoding="utf-8"?>
<!-- Generator: Adobe Illustrator 26.0.2, SVG Export Plug-In . SVG Version: 6.00 Build 0)  -->
<svg version="1.1" id="Layer_1" xmlns="http://www.w3.org/2000/svg" xmlns:xlink="http://www.w3.org/1999/xlink" x="0px" y="0px"
	 viewBox="0 0 32 32" style="enable-background:new 0 0 32 32;" xml:space="preserve">
<style type="text/css">
	.st0{fill:url(#SVGID_1_);}
</style>
<linearGradient id="SVGID_1_" gradientUnits="userSpaceOnUse" x1="-17.0807" y1="-8.1575" x2="60.6099" y2="40.7229">
	<stop  offset="0" style="stop-color:#05878A"/>
	<stop  offset="1" style="stop-color:#074E67"/>
</linearGradient>
<path class="st0" d="M26.3,1.1H5.7c-2.9,0-5.2,2.3-5.2,5.2V19c0,2.9,2.3,5.2,5.2,5.2H14h1l5.3,6.3c0,0,0.1,0.1,0.1,0.1
	c0.2,0.2,0.4,0.3,0.7,0.3c0.3,0,0.5-0.1,0.7-0.3c0.2-0.2,0.3-0.4,0.3-0.7V8.4h3.4c0.3,0,0.5-0.1,0.7-0.3c0.2-0.2,0.3-0.4,0.3-0.7
	c0-0.3-0.1-0.5-0.3-0.7c-0.2-0.2-0.4-0.3-0.7-0.3H12.7h-0.8h0c-0.6,0-1.1,0.1-1.6,0.2C9.7,7,9.2,7.2,8.7,7.5c-1,0.6-1.8,1.4-2.3,2.4
	c-0.6,1-0.8,2.1-0.8,3.3c0,1.2,0.3,2.4,0.8,3.4c0.6,1,1.3,1.8,2.3,2.4c1,0.6,2.1,0.9,3.3,0.9c1.5,0,2.9-0.5,4.1-1.4
	c0.2-0.2,0.3-0.4,0.3-0.7v-3.9c0-0.3-0.1-0.5-0.3-0.7l0,0c-0.2-0.2-0.4-0.3-0.7-0.3h-3c-0.3,0-0.5,0.1-0.7,0.2
	c-0.2,0.2-0.3,0.4-0.3,0.6c0,0.3,0.1,0.5,0.3,0.6c0.2,0.2,0.4,0.2,0.7,0.2h2.1v2.7c-0.8,0.5-1.6,0.8-2.5,0.8c-0.8,0-1.6-0.2-2.3-0.6
	C9,17,8.4,16.4,8,15.7c-0.4-0.7-0.6-1.6-0.6-2.4c0-0.9,0.2-1.7,0.6-2.4c0.3-0.5,0.7-1,1.1-1.4c0,0,0.1,0,0.1-0.1
	C9.4,9.2,9.5,9.1,9.7,9c0.1,0,0.1-0.1,0.2-0.1c0.6-0.3,1.4-0.5,2-0.5h1h3.5h3.7v18.7l-4.2-4.9l0,0H5.7c-1.8,0-3.2-1.4-3.2-3.2V6.3
	c0-1.8,1.4-3.2,3.2-3.2h20.7c1.8,0,3.2,1.4,3.2,3.2V19c0,1.8-1.4,3.2-3.2,3.2h-2.8v2h2.8c2.9,0,5.2-2.3,5.2-5.2V6.3
	C31.6,3.4,29.2,1.1,26.3,1.1z"/>
</svg>
